<?xml version="1.0" standalone="no"?>
<!DOCTYPE svg PUBLIC "-//W3C//DTD SVG 20010904//EN"
 "http://www.w3.org/TR/2001/REC-SVG-20010904/DTD/svg10.dtd">
<svg version="1.0" xmlns="http://www.w3.org/2000/svg"
 width="25px" height="25px" viewBox="0 0 128.000000 128.000000"
 preserveAspectRatio="xMidYMid meet">

<g transform="translate(0.000000,128.000000) scale(0.100000,-0.100000)"
fill="#000000" stroke="none">
<path d="M381 1163 c-166 -99 -281 -299 -281 -493 0 -255 182 -489 430 -555
72 -19 210 -19 285 0 143 36 293 151 358 273 50 92 25 120 -76 85 -78 -27
-233 -24 -312 7 -255 98 -381 355 -304 617 18 59 19 75 9 88 -19 23 -39 19
-109 -22z"/>
</g>
</svg>
